<?xml version="1.0" encoding="UTF-8"?>
<svg id="Layer_1" xmlns="http://www.w3.org/2000/svg" version="1.1" viewBox="0 0 350.67 321.33">
  <!-- Generator: Adobe Illustrator 29.0.0, SVG Export Plug-In . SVG Version: 2.1.0 Build 186)  -->
  <defs>
    <style>
      .st0 {
        fill: #fcfcfc;
      }

      .st1 {
        fill: #eb7a26;
      }

      .st2 {
        fill: #1c242a;
      }
    </style>
  </defs>
  <path class="st0" d="M200,230.67v62.67s50.33,5.33,50.33,4.33,23.33-18,23.33-18c0,0-3.33-41-4.67-43.33s-13.67-15.33-13.67-15.33l-55.33,9.67Z"/>
  <g>
    <path class="st0" d="M69.64,161.62l23.33,23.33,2,125.72,35.12-.99s21.55-36.61,20.22-45.67-17-64.34-17-64.34l2-20.38s17-19.33,17.67-21.33,12-44.33,8.67-47.67-16-26.65-22.67-20.66-41.67,13.23-43.33,15.44-26,56.55-26,56.55Z"/>
    <path class="st0" d="M185.62,110.78l-3.5,49.17,28.17,19.67,15.8,9.04,26.02,1,30.68-7.54s8.5-15.67,8.33-19.83,1.84-22,0-23.33-16.84-22-19.17-22.83-25.17-10.33-33.67-11-52.67,5.67-52.67,5.67Z"/>
    <path class="st1" d="M130.09,141.67c-.71,3.51-11.14,8.93-14.52,9.07-3.08.13-15.48-5.68-15.48-8.57v-28.5c-19.28,9.3-25.43,33.2-11.98,50.48,2.89,3.71,11.98,10.27,11.98,15.02v130c0,.11-1.39,1.5-1.5,1.5h-41c-1.39,0-7.5-4.75-7.5-6.5v-104.5h39c-.44-2.6,1.34-9.88-1.64-10.86-8.85-2.9-27.31,3.93-37.36-.14v-68.5c34.9-21.05,69.52-42.72,104.69-63.31,3.8-2.23,8.1-4.96,12.31-6.19v138c0,1.35-24.59,0-27,0h-10c.07-2.92-.16-6.25,0-10,.01-.33-.02-.67,0-1,5.39-8.35,13.37-12.8,16.73-22.77,3.53-10.49,2.59-15.64-1.73-25.23-.33-.73-.61-1.3-1-2-3.45-6.21-6.93-11.3-13.99-14-.56,8.43.73,17.68-.01,26-.06.65.12,1.42,0,2Z"/>
    <path class="st1" d="M295.09,199.67c.24,4.95-.03,10.03,0,15,.09,13.65.05,27.35,0,41-.01,4.32.03,8.68,0,13-.03,5.32.08,10.68,0,16-.05,3.32.1,6.68,0,10-.05,1.66.09,3.34,0,5-.07,1.31.15,2.7,0,4-.01.09-.63-.14-.97,1.5-.25,1.17.17,4.31-.03,4.5-.24.23-3.32-.31-4.31.2l-.69.8c-3.29-.21-6.7.03-10,0-1,0-2,0-3,0-.67,0-1.33,0-2,0-5.99-.02-12.01,0-18,0-9.65,0-19.35.02-29,0-1.33,0-2.67,0-4,0-.67,0-1.33,0-2,0-1.67,0-3.33,0-5,0-5.65-.02-11.35.03-17,0-6.99-.04-14.01.03-21,0v-111h117ZM261.09,230.67h-49v49h47.5c.11,0,1.5-1.39,1.5-1.5v-47.5Z"/>
    <path class="st2" d="M192.09,57.67c.85.5,2.35,2.4,4.09,3.41,33.18,19.34,66,39.3,98.91,59.09v69.5c-7.32-.02-14.68.03-22,0-6.98-.03-14.01.03-20.99,0-.35-18.61-15.81-66.56,20.66-49.16l13.33,11.16c-1.9-19.06-19.64-34.55-38.46-36.03-3.82-.3-18.96-.7-21.83.01-.94.23-1.6,3.61-4.65,4.57-2.51.79-8.54,1.06-10.62-.48-.91-.67-2.26-4.07-2.93-4.07h-15.5v27.5c0,.11,1.39,1.5,1.5,1.5h14.5c.32,0,.07-3.8,3.24-5.26,8.59-3.97,17.51,1.99,18.51,11.03l-3.76,38.22c-2.99.07-6-.05-8.99,0-7.3.14-14.69.05-22,0-5.65-.04-11.35.03-17,0V50.67c3.92,1.41,7.48,4.3,11.11,6.42,1.04.61,2.52.36,2.89.58Z"/>
    <path class="st2" d="M180.09,17.67c2.22,1.18,5.97,4.25,9,6,5.23,3.02,10.93,5.99,16,9,4.18,2.48,8.68,5.43,13,8,5.82,3.47,12,7.41,18,11s11.99,7.38,18,11c6.65,4,13.35,7.99,20,12,6.01,3.62,11.99,7.37,18,11,7.91,4.77,16.2,9.32,24,14,2.62,1.57,5.66,4.98,9,6,.1,1.7,1.15,3.51,1.1,5.51-.16,6.3-6.17,9.3-11.82,6.71-38.03-22.85-76.16-45.54-114.28-68.22-7.97-4.74-16.62-11.75-24.97-15.55-1.31-.59-2.44-1.69-4.05-1.05L33.09,116.67c-1.93-.32-4.36,2.84-5,3-4.46,1.12-9.8-4.07-9.96-8.6s5.56-8.14,8.96-10.4c4.98-3.32,11.6-6.66,17-10,5.3-3.28,10.84-6.85,16-10,5.57-3.41,11.39-6.59,17-10,7.65-4.65,15.34-9.39,23-14,5.62-3.38,11.38-6.63,17-10,8.69-5.21,17.49-10.94,26-16,4.22-2.51,8.81-4.57,13-7,1.13-.66.94-.97,1-1,3.45-1.96,8.21-5.66,11-7,.53-.25,1.89-.98,2-1,2.34-.32,7.78,1.81,10,3Z"/>
    <path class="st2" d="M140.09,188.67c.4,1.34-.55,11,0,11h27v110.01c-1.32.07-2.67-.09-4,0-10.81.65-22.14-.49-33.01,0-.08-26.17.1-52.36.05-78.54,0-2.73-1.03-5.33-1.04-8.46,0-.62,0-1.37,0-2-.08-7.64.88-14.63,1-22,.05-3.32-.08-6.68,0-10h10Z"/>
  </g>
</svg>