<?xml version="1.0" encoding="UTF-8"?>
<svg id="Layer_1" xmlns="http://www.w3.org/2000/svg" version="1.1" viewBox="0 0 849.71 321.33">
  <!-- Generator: Adobe Illustrator 29.0.0, SVG Export Plug-In . SVG Version: 2.1.0 Build 186)  -->
  <defs>
    <style>
      .st0 {
        fill: #fcfcfc;
      }

      .st1 {
        fill: #eb7a26;
      }

      .st2 {
        fill: #1c242a;
      }
    </style>
  </defs>
  <path class="st0" d="M69.64,161.62l23.33,23.33,2,125.72,35.12-.99s21.55-36.61,20.22-45.67-17-64.34-17-64.34l2-20.38s17-19.33,17.67-21.33,12-44.33,8.67-47.67-16-26.65-22.67-20.66-41.67,13.23-43.33,15.44-26,56.55-26,56.55Z"/>
  <path class="st0" d="M185.62,110.78l-3.5,49.17,28.17,19.67,15.8,9.04,26.02,1,30.68-7.54s8.5-15.67,8.33-19.83,1.84-22,0-23.33-16.84-22-19.17-22.83-25.17-10.33-33.67-11-52.67,5.67-52.67,5.67Z"/>
  <path class="st1" d="M130.09,141.67c-.71,3.51-11.14,8.93-14.52,9.07-3.08.13-15.48-5.68-15.48-8.57v-28.5c-19.28,9.3-25.43,33.2-11.98,50.48,2.89,3.71,11.98,10.27,11.98,15.02v130c0,.11-1.39,1.5-1.5,1.5h-41c-1.39,0-7.5-4.75-7.5-6.5v-104.5h39c-.44-2.6,1.34-9.88-1.64-10.86-8.85-2.9-27.31,3.93-37.36-.14v-68.5c34.9-21.05,69.52-42.72,104.69-63.31,3.8-2.23,8.1-4.96,12.31-6.19v138c0,1.35-24.59,0-27,0h-10c.07-2.92-.16-6.25,0-10,.01-.33-.02-.67,0-1,5.39-8.35,13.37-12.8,16.73-22.77,3.53-10.49,2.59-15.64-1.73-25.23-.33-.73-.61-1.3-1-2-3.45-6.21-6.93-11.3-13.99-14-.56,8.43.73,17.68-.01,26-.06.65.12,1.42,0,2Z"/>
  <path class="st1" d="M295.09,199.67c.24,4.95-.03,10.03,0,15,.09,13.65.05,27.35,0,41-.01,4.32.03,8.68,0,13-.03,5.32.08,10.68,0,16-.05,3.32.1,6.68,0,10-.05,1.66.09,3.34,0,5-.07,1.31.15,2.7,0,4-.01.09-.63-.14-.97,1.5-.25,1.17.17,4.31-.03,4.5-.24.23-3.32-.31-4.31.2l-.69.8c-3.29-.21-6.7.03-10,0-1,0-2,0-3,0-.67,0-1.33,0-2,0-5.99-.02-12.01,0-18,0-9.65,0-19.35.02-29,0-1.33,0-2.67,0-4,0-.67,0-1.33,0-2,0-1.67,0-3.33,0-5,0-5.65-.02-11.35.03-17,0-6.99-.04-14.01.03-21,0v-111h117ZM261.09,230.67h-49v49h47.5c.11,0,1.5-1.39,1.5-1.5v-47.5Z"/>
  <path class="st2" d="M192.09,57.67c.85.5,2.35,2.4,4.09,3.41,33.18,19.34,66,39.3,98.91,59.09v69.5c-7.32-.02-14.68.03-22,0-6.98-.03-14.01.03-20.99,0-.35-18.61-15.81-66.56,20.66-49.16l13.33,11.16c-1.9-19.06-19.64-34.55-38.46-36.03-3.82-.3-18.96-.7-21.83.01-.94.23-1.6,3.61-4.65,4.57-2.51.79-8.54,1.06-10.62-.48-.91-.67-2.26-4.07-2.93-4.07h-15.5v27.5c0,.11,1.39,1.5,1.5,1.5h14.5c.32,0,.07-3.8,3.24-5.26,8.59-3.97,17.51,1.99,18.51,11.03l-3.76,38.22c-2.99.07-6-.05-8.99,0-7.3.14-14.69.05-22,0-5.65-.04-11.35.03-17,0V50.67c3.92,1.41,7.48,4.3,11.11,6.42,1.04.61,2.52.36,2.89.58Z"/>
  <path class="st2" d="M180.09,17.67c2.22,1.18,5.97,4.25,9,6,5.23,3.02,10.93,5.99,16,9,4.18,2.48,8.68,5.43,13,8,5.82,3.47,12,7.41,18,11s11.99,7.38,18,11c6.65,4,13.35,7.99,20,12,6.01,3.62,11.99,7.37,18,11,7.91,4.77,16.2,9.32,24,14,2.62,1.57,5.66,4.98,9,6,.1,1.7,1.15,3.51,1.1,5.51-.16,6.3-6.17,9.3-11.82,6.71-38.03-22.85-76.16-45.54-114.28-68.22-7.97-4.74-16.62-11.75-24.97-15.55-1.31-.59-2.44-1.69-4.05-1.05L33.09,116.67c-1.93-.32-4.36,2.84-5,3-4.46,1.12-9.8-4.07-9.96-8.6s5.56-8.14,8.96-10.4c4.98-3.32,11.6-6.66,17-10,5.3-3.28,10.84-6.85,16-10,5.57-3.41,11.39-6.59,17-10,7.65-4.65,15.34-9.39,23-14,5.62-3.38,11.38-6.63,17-10,8.69-5.21,17.49-10.94,26-16,4.22-2.51,8.81-4.57,13-7,1.13-.66.94-.97,1-1,3.45-1.96,8.21-5.66,11-7,.53-.25,1.89-.98,2-1,2.34-.32,7.78,1.81,10,3Z"/>
  <path class="st2" d="M140.09,188.67c.4,1.34-.55,11,0,11h27v110.01c-1.32.07-2.67-.09-4,0-10.81.65-22.14-.49-33.01,0-.08-26.17.1-52.36.05-78.54,0-2.73-1.03-5.33-1.04-8.46,0-.62,0-1.37,0-2-.08-7.64.88-14.63,1-22,.05-3.32-.08-6.68,0-10h10Z"/>
  <path class="st2" d="M683.09,244.67c-18.43-10.02-23.36-36.6-13.81-54.31,10.42-19.32,36.69-24.85,53.81-10.69v-27.5c0-9.28,15.25-12.24,17.79-2.79v92.57c-3.42,8.85-16.88,7.46-16.8-2.28-9.71,8.98-24.61,11.58-36.99,7-.21-.08-3.49-1.72-4-2ZM699.85,187.93c-26.03,3.32-23.07,49.9,8.5,44.5,7.86-1.34,14.77-10.63,15.62-18.37,1.64-14.91-8.42-28.14-24.12-26.13Z"/>
  <path class="st2" d="M812.08,179.66c.74-9.96,15.99-11.22,17.77-1.27-1.23,19.08,2.46,42.19.26,60.79-1.39,11.82-15.8,11.05-18.04.48-17.91,17.44-47.77,8.56-56.47-14.02-14.01-36.32,24.43-70.15,56.47-45.99ZM787.83,187.91c-25.38,4.27-21.71,49.66,8.53,44.52,25.28-4.3,20.51-49.4-8.53-44.52Z"/>
  <path class="st2" d="M635.08,180.67c-.78-10.02,12.17-11.96,16.8-4.29l-.31,67.27c-5.23,6.92-15.64,4.77-16.98-3.98-32.1,26.18-69.9-7.92-55.99-44.99,8.49-22.64,38.52-30.84,56.48-14.01ZM610.85,187.93c-22.65,3.16-23.08,39.74-1.82,44.29,34.07,7.29,34.86-48.9,1.82-44.29Z"/>
  <path class="st2" d="M481.09,243.67c-.58.33-3.45,1.78-4,2-50.3,20.66-79.41-48.92-35.38-69.88,47.88-22.78,80.87,44.29,39.38,67.88ZM456.86,187.92c-26.82,3.31-23.74,48.48,6.65,44.66,26.33-3.31,22.71-48.28-6.65-44.66Z"/>
  <path class="st1" d="M372.09,264.67c11.98-.11,24.02.03,36,0,7.99-.02,16.01.01,24,0,24.98-.04,50.02.02,75,0,2.66,0,5.34,0,8,0,15.65,0,31.35,0,47,0,13.98,0,28.02,0,42,0,16.65,0,33.35-.01,50,0,9.32,0,18.68,0,28,0,2.33,0,4.67,0,7,0,.67,0,1.33,0,2,0,28.65.03,57.35-.07,86,0,1,0,2,0,3,0,15.47.04,35.14-1.51,50,0,1.83,1.85,2.56,4.19.33,6.04-12.77-.04-25.57-.09-38.33-.04-.67,0-1.33,0-2,0-1.67,0-3.33,0-5,0-4.32.02-8.68,0-13,0-48.65.11-97.35-.02-146,0-3.32,0-6.68,0-10,0h-2c-2,0-4,0-6,0-15.32,0-30.68,0-46,0-11.32,0-22.68,0-34,0-17.65,0-35.35.02-53,0-9.98,0-20.02.01-30,0-18.98-.02-38.02.06-57,0-7.65-.03-15.35.12-23,0-3.94-.06-13.45.79-16.35-.15-2.13-.69-2.39-4.23-.7-5.4,1.56-1.07,20.25-.42,24.05-.45Z"/>
  <path class="st2" d="M531.09,231.67h34.5c5.37,0,8.76,13.31-.02,14.98-16.79-1.61-37.77,2.22-54.03.07-6.13-.81-8.09-8.06-4.84-12.95l36.39-44.1h-31.5c-.22,0-3.2-2.31-3.52-2.74-3.44-4.61-1.99-11.39,3.74-13.04,15.97.98,35.23-2.06,50.81-.24,6.6.77,9.35,6.56,6.34,12.39-12.2,15.54-26.13,29.86-37.86,45.64Z"/>
  <path class="st2" d="M367.09,229.67h41.5c7.27,0,10.54,15.6-.23,17.77-7.41,1.49-42.55,1.24-50.79.25-3.08-.37-7.46-2.32-8.72-5.28-1.6-28.82-.55-58.07-.54-87.04,2.08-6.44,9.88-8.66,15.31-4.73.82.59,3.48,3.92,3.48,4.52v74.5Z"/>
  <path class="st2" d="M790.09,79.67c7.8-3.07,20.78-.86,26.99,5,.57-7.35,5.72-5.65,11.01-6,.37,1.24,1.83,2.9,2,4,1.39,9.03.87,35.81.04,45.54-.82,9.62-10.78,9.44-13.53,1.46-10.32,10.18-29.41,7.92-37.51-4.01-7.23-10.65-8-25.16-.44-35.94,1.57-2.24,9.16-9.17,11.44-10.06ZM796.8,90.88c-11.69,2.65-13.64,24.95-2.41,30.99,9.97,5.37,21.5-.41,22.7-11.7,1.4-13.24-6.53-22.41-20.29-19.29Z"/>
  <path class="st2" d="M442.09,79.67c.71.24,4.98,3.23,6,4,6.57,4.95,13.3,15.91,10.79,24.3-.25.85-2.99,3.7-3.29,3.7h-38.5c2.27,10.51,12.59,13.54,22.27,11.77,4.1-.75,11.91-8.06,15.22-.75,4.02,8.88-14.67,13.77-20.98,13.77-22.81,0-38.52-23.47-27.5-43.79.25-.47,6.23-7.28,7-8,6.64-6.18,20.57-7.87,29-5ZM445.09,101.67c-.85-16.09-26.6-16.03-28,0h28Z"/>
  <path class="st2" d="M684.09,79.67c1.77,1.66,4.08,2.55,6,4,6.31,4.75,12.8,13.94,11.81,22.23-.23,1.97-2.28,5.77-4.31,5.77h-38.5c2.77,10.56,13.32,13.83,23.27,11.77,4.08-.84,7.95-6.66,13.3-2.84,8.87,6.33-7.27,14.22-13.16,14.99-23.46,3.06-40.97-11.52-36.42-35.92.18-.95,4.16-8.74,5-10,7.29-10.93,15.66-10.89,27.55-11.04,2.06-.03,3.98,1.03,5.45,1.04ZM688.09,101.67c-2.53-16.35-26.08-15.66-29,0h29Z"/>
  <path class="st2" d="M572.09,78.67c12.03-.37,23.08,5.13,27.79,16.71,1.55,3.81,4.34,16.29-2.29,16.29h-37.5c1.3,10.13,12.32,13.39,21.44,11.94,4.75-.76,10.37-7.5,15.14-2.02,5.27,6.05-5.87,12.22-10.76,13.4-24.41,5.88-46.51-11.84-38.82-37.32.53-1.76,3.78-7.36,5-9,1.96-2.63,8.15-7.97,11-9,1.73-.63,6.87-.93,9-1ZM588.09,101.67c-.55-16.06-27.45-16.05-28,0h28Z"/>
  <path class="st2" d="M371.09,61.67c6.78,0,17.91-1,24,0,.43.07,3.87,1.82,4,2,1.42,1.9,1.36,8.14-.99,9.51-.52.31-10.46,1.47-12.01,1.49-1.73.02-6.7-.98-10-1-4.32-.03-8.68.02-13,0v18h29.5c3.92,0,4.99,13-1,13h-28.5v27c0,.41-6.9,3.79-7.31,3.78-2.9-.05-6.2-2.79-6.69-5.78-.32-2,.07-4.8,0-7-.27-8.94-.06-18.05,0-27,.03-4.32-.07-8.68,0-13s-.89-15.98.95-18.57c.48-.67,2.13-1.48,3.05-2.43h18Z"/>
  <path class="st2" d="M627.09,75.67c.08.97-.2,3.81,0,4,.43.42,9.9-.63,12.01,1,.99,2.25,2.39,2.58,2,6-.27,2.38-1.9,3.18-3,5-2.87-.69-7.81.49-11.01,0l1,28.51c1.03,5.57,12.08-.88,13.03,6.06,1.45,10.67-18.06,11.3-23.47,5.39-7.11-7.76-1.74-38.2-3.55-39.95-.38-.37-7.52,1.13-10.08-2.42-2.36-3.29.49-6.26.07-7.57,1.78-2.58,9.63-1.63,10.01-2s-.27-8.3,0-10c2.56-1.72,3.23-5.31,8.28-3.83,4.75,1.39,4.42,6.25,4.72,9.83Z"/>
  <path class="st2" d="M744.09,89.67c-.64.2-1.43.92-2,1-1.52.21-3.38-.08-5,0-.66.03-1.34-.06-2,0-8.98.77-11.27,4.52-12.03,13.47-.53,6.19,1.42,23.31-.48,27.52-3.03,6.72-12.46,4.59-13.48-4.49s-.95-30.76,0-40c.56-5.42,2.19-7.81,8-7.5,1.45.08,2.26-.06,3.54.92,2.36,1.8,1.4,5.02,3.44,6.07.04-2.58,6.19-7.56,8.01-7.99,2.77-.66,9.42-.2,11.55,1.94,2.98,2.99,1.07,5.96.45,9.06Z"/>
  <path class="st2" d="M545.09,84.67c-.28,4.24-.78,5.58-5,6-3.17.31-7.42-.65-10.3.2-12.18,3.6-5.45,32.72-7.9,41.09-1.36,4.63-8.41,1.8-9.8,2.7-.55-1.07-1.81-2.85-3-3,.14-10.65-.2-21.35,0-32,.06-3.32-.15-6.69,0-10,.08-1.81-.12-3.6.04-5.43.14-1.59,1.95-2.75,1.96-4.57,6.56-.6,10.21-.28,11.01,7,1.05.84,4.4-5.59,4.99-6,2.56-1.77,10.16-2.52,13.29-1.78,4.75,1.12,3.57,4.48,4.71,5.78Z"/>
  <path class="st2" d="M503.09,87.67c-1.16.14-2.25,2.37-3.7,2.8-2.29.67-4.96-.02-7.3.2-1.38.13-2.74-.16-4.24.21-11.27,2.83-6.96,28.48-7.72,37.33-.84,9.82-12.06,9.6-13.06.97-1.61-13.9,1.2-30.75.04-44.99,1.97-7.69,8.89-2.98,11.97-3.53l1.5,6c1.71-2.59,4.57-5.88,7.5-7,7.19-2.73,16.36-1.56,15,8Z"/>
  <path class="st2" d="M752.09,117.67c-.15-6.49-1.02-14.04-1-20,0-1.21-.03-4.24,0-5,.11-2.53,1.24-12.04,3-13,2.73-1.48,10.55-.67,10.78,3.72-.8,14.09,1.84,31.06.24,44.8-1.09,9.39-12.17,7.63-13.02,2.98-.65-3.52.09-9.51,0-13.5Z"/>
  <path class="st2" d="M769.09,67.67c-.64.77-7.22,6.67-7.71,6.82-3.13.92-5.28-.9-7.29-.82.02-1.87.26-4.31,1-6,.35-.8,2.2-3.57,3-5,2.68-4.82,4.98-11.21,11.75-8.24,1.82.8,4.23,3.53,4.04,5.59-.04.45-4.22,6.97-4.79,7.65Z"/>
  <path class="st2" d="M460.09,288.67l4.2,8.3c1.64.94,2.19,6.3,4.29,5.71.76-.22,6.85-12.04,7.51-14.01.45.28,2.74-.67,3.07.54,1.32,4.88-1.1,15.81-.07,21.47h-2.99c-.45-2.45,1.61-11.01-2.49-11.02-.69,0-2.63,7.47-5.99,8.04-2.78.47-4.16-10.77-6.51-8.04-.48.56-1.14,9.37-1.01,11.01h-2.99c-.06-3.33.06-6.68,0-10.01-.07-3.99.05-8.01,0-12,.86-.04,2.52.21,3,0Z"/>
  <path class="st2" d="M772.09,300.67c-.14-2.39-.45-10.6.47-12.03,1.93-3.02,3.8,1.45,4.89,2.7.41.47,1.56.23,1.64.33.33.42.26,2.6,1.13,3.33l6.86,8.67v-14.99c.63.07,2.88.1,3.01,0,2.74,2.9-.02,7.47,0,10.5.02,2.61,1.07,5.19,1,8.5-.13,5.84-1.45,1.79-5,2-1.54-5.4-6.34-9.87-9.99-14v15c-1.71.02-2.84-.99-3.01-1,.17-3.09-.82-5.92-1-9Z"/>
  <path class="st2" d="M394.09,288.67c1.98.13,4.03-.18,6,0,4.15.38,6.92.51,8.35,5.18,2.05,6.69-3.44,7.79-3.22,10.15.13,1.34,4.25,5.42,2.86,6.67-.19.17-3.09.17-3.79-.21-.61-.33-1.64-3.89-2.72-4.78-1.32-1.09-5.97-1.55-6.49-1.01-.57.6,1.51,7.39-4,6,0-4.99,0-10.01,0-15v-7c.24.18,2.21-.05,3,0ZM395.09,300.67c13.81,2.37,13.7-11.42,0-9.01v9.01Z"/>
  <path class="st2" d="M428.09,302.67c-.2.24-2.01-.52-2,.49l4,7.51c-1.79-.1-2.48-.48-4-1-.35-2.08-1.92-2.79-3-4-.17-.19.57-1.75-.63-2.04-.74-.18-5.19-.16-5.37.03-.64.65,1.84,8.47-3.99,7.01v-21.5c0-3.01,12.52-1.08,14.97,1.03,3.07,2.63,2.43,9.67.03,12.47ZM425.85,292.91c-1.72-1.7-6.39-1.18-8.76-1.25v9.01c5.11,1.93,13.77-2.81,8.76-7.76Z"/>
  <path class="st2" d="M672.09,298.67c.08,2.46-2.11,8.6-4,10-5.16,3.84-16.11,2.67-17.79-4.71-4.58-20.14,21.27-20.27,21.79-5.29ZM655.37,305.39c7.74,7.72,17.9-5.98,10.69-12.18-7.55-6.5-17.61,5.28-10.69,12.18Z"/>
  <path class="st2" d="M768.09,300.67c-.42,5.3-3.27,6.86-7,10-7.02-.54-13.83-.16-14.93-9.61-1.82-15.65,23.42-19.05,21.93-.39ZM762.82,305.39c5.77-5.75-.07-17.11-8.71-13.2-10.02,4.54-.05,21.92,8.71,13.2Z"/>
  <path class="st2" d="M522.09,293.67l7,10v-15h3c.07,3.98-.08,8.01,0,12,.06,2.77,1.49,7.44.05,9.4-3.05,4.17-10.93-12.6-14.04-13.4-.94,4.31,2.87,14.68-4,13.99,1.35-7.26,1-14.62,1-21.99,1.45-1.47,5.93,3.73,6.99,5Z"/>
  <path class="st2" d="M633.09,289.67c4.43-.89,8-4.31,13,.51,1.12,4.88-11.07-1.65-11.03,4,.03,4.8,11.49,2.31,11.99,9.07.51,6.88-5.65,8.21-11.4,7.35-2.89-.43-8.78-3.58-3.92-4.86,1.94-.51,3.58,1.62,5.65,1.65,2.7.04,8.29-2.61,5.12-4.79s-11.76-.98-11.42-7.93c.09-1.84,1.23-3.42,2-5Z"/>
  <path class="st2" d="M348.09,295.67c.07-2.33-.06-4.68,0-7.01h2.99c.29,1.59-.38,8.63,0,9.01s10.62.39,11.01,0c1.44-1.44-3.26-11.44,3.99-9.01v22.01c-1.67.82-3.42-.94-4-1v-9.01s-10.42-.01-10.42-.01l-.58,9.02c-.16.02-2.07.75-3,1,.1-4.98-.15-10.02,0-15Z"/>
  <path class="st2" d="M386.09,288.67c4.7,5.61-9.93,1.9-11.01,2.99v6.01c3.21-.28,6.88.37,10.01,0,1.68,5.82-8.78,1.75-10.01,2.99v6.01c1.9.31,11.6-.44,12.01,0,.14.14.2,4,0,4h-16l.99-22.01c2.43-.52,12.93.71,14.01,0Z"/>
  <path class="st2" d="M577.09,309.67c-.33-.48-1.67-.92-1.75-1.2-.07-.23.71-2.67.82-2.76,1.01-.82,10.97,3.96,11.97.32,1.83-6.65-12.61-2.89-12.03-11.79.67-10.29,19.08-6,14.98-1.58-.45.48-9.9-3-10.99.52-1.31,4.23,6.61,4.83,8.99,5.49,5.46,5.8,3.59,10.52-4,12-1.67.33-4.12-.14-6,0l-2-1Z"/>
  <path class="st2" d="M829.08,293.66c-.51.43-12.04-6.32-10.05,2.41.32,1.4,9.24,2.41,11.14,5.01,3.78,5.2-2.25,10.04-7.58,10.07-3.1.01-12.78-3.78-6.84-5.39,1.54-.42,10.56,4.01,11.4.3,1.43-6.34-8.13-3.64-10.96-7.99-5.89-9.07,10.2-13.15,13.49-8.43.53.76-.45,3.9-.61,4.03Z"/>
  <path class="st2" d="M800.09,288.67c3.64-.17,7.36.12,11.01,0v2.99s-11.01,0-11.01,0v6.01c1.71.3,9.81-.65,10.01.5.85,4.82-7.19,1.62-10.01,2.49v6.01c.74.75,12.91-1.83,12,2.48-.59,2.79-13.23,1.05-16,1.51.09-.97-.12-2.04,0-3,.83-6.19,2.07-12.72,0-18.99,1.32-.06,2.67.06,4,0Z"/>
  <path class="st2" d="M562.09,288.67c.43.31,2.08-.52,3.89,1.59,1.11,1.3,8.92,19.67,8.1,20.4-5.87,1.78-3.92-3.86-5.1-4.89-.39-.34-9.05-.33-10.23.05-3.19,1.05-.19,4.82-5.66,4.84,1.59-7.65,5.36-15.09,9-22ZM567.09,302.66l-3.49-9.99-4.5,9.99h7.99Z"/>
  <path class="st2" d="M695.09,308.67c-2.03-2.24-2.78-19.26-2-20,.14-.14,4-.2,4,0v15.5c0,.68,3.6,3.16,4.72,3.34,8.36,1.31,6.04-14.07,6.28-18.84h2.99c.06,2.33-.05,4.68,0,7.01.16,7.47.15,15.47-9.52,15.11-1.3-.05-5.89-1.47-6.48-2.11Z"/>
  <path class="st2" d="M494.09,305.67c.01-.57.97-2.01,1-3.45.08-4.51-.05-9.04,0-13.55h14v3s-11.01,0-11.01,0v6.01c.93.94,10.65-2.15,11.02,2.48.02,1.29-10.51-.01-11.02.5-.17.18-.08,4.06,0,5.01s-.32,1.66,1,2c1.95.5,10.51-.52,11.01,0v2.99c-4.99.07-10.02-.08-15.01,0,.67-1.61-1.02-4.16-1-5Z"/>
  <path class="st2" d="M734.09,290.67c-.24,3.43-2.08,2.22-3,3-2.42-3.7-6.11-2.5-9,0-6.55,5.67-2.29,14.84,7.25,12.75.53-.12,6.83-3.6,4.28,1.27-4.19,8-21.52,1.23-18.53-11.03.16-.65,3.62-5.34,4.48-6.03,4.91-3.96,9.51-3.04,14.52.03Z"/>
  <path class="st2" d="M434.09,303.67c.71-1.84,6.29-14.1,6.98-14.52,3.96-2.38,4.58,1.37,6.02,4.52,1.23,2.67,3.02,6.4,4,9,2.61,6.91,2.28,13.13-3,4-.21-.36.61-1.75-.62-2.05-4.5-1.08-11.04-.65-11.38,5.05-.51.03-1.72,1.05-4,1,1.02-2.02,1.3-5.19,2-7ZM444.08,292.67c-1.44-1.48-1.73.41-2.22,1.28-.61,1.1-3.31,8.2-2.77,8.72h7.99c-.66-1.49-2.64-9.62-3.01-10Z"/>
  <path class="st2" d="M606.09,289.67l5.5,8.98,5.5-9.98c.65.07,1.43-.13,2,0,.64.14,2.03-.46,1.99.49-2.06,2.95-3.35,6.35-4.99,9.51-.38.74-2.24,1.16-2.79,3.71-.42,1.93.07,8-.22,8.29-.4.4-2.73.14-3.52-.98-.98-1.4-.25-3.53-.48-5.01-1.14-7.47-3.36-6.89-6-12-3.42-6.6,1.59-2.99,3-3Z"/>
  <path class="st2" d="M543.09,302.67c-.04-1.76.4-10.62,0-11.01-.35-.35-5.64.26-7.01,0v-3h17.01v3c-1.37.26-6.66-.35-7.01,0-.64.64.48,15.39,0,18.01-.23,0-1.57,1.65-2.99.99-.05-2.66.05-5.34,0-7.99Z"/>
  <path class="st2" d="M676.09,298.67c.06-3.32-.05-6.68,0-10.01h2.99c.07,2.66-.06,5.35,0,8.01.08,3.32-.06,6.68,0,10,.73.72,12.64-1.83,11.01,4-4.64-.05-9.36-.12-14,0,.05-3.99-.07-8.01,0-12Z"/>
  <path class="st2" d="M488.09,310.67c-.95-.25-2.71.67-3.04-.56l.05-21.44h2.99c-1.07,5.46,1.09,12.11,1,17.01-.02.95-1.68,3.32-1,5Z"/>
  <path class="st2" d="M742.09,288.67v20.5c0,.65-2.14,1.92-3,1.5v-22h3Z"/>
</svg>