<?xml version="1.0" encoding="UTF-8"?>
<svg id="Layer_1" xmlns="http://www.w3.org/2000/svg" version="1.1" viewBox="0 0 595.28 841.89">
  <!-- Generator: Adobe Illustrator 29.0.0, SVG Export Plug-In . SVG Version: 2.1.0 Build 186)  -->
  <defs>
    <style>
      .st0 {
        fill: #e87823;
      }

      .st1 {
        fill: #fbfcfb;
      }

      .st2 {
        fill: #1c2529;
      }
    </style>
  </defs>
  <path class="st1" d="M214.7,206.98l-10.67,18.03,9.69,38.21,11.44,4.46v38l-5.47,36.67,12,38.2,27,1,23.42-14.54-23.42-96.46,16.71-18.87,11.09-22.57-4.38-30.77s-28.77-10-29.2-10.67-43.02,19.87-43.02,19.87l4.8-.57Z"/>
  <path class="st1" d="M308.5,199.01v48.67l38.2,22.87h24l15.5-3.54,17.51-17.33,2.99-18s-15.8-29.33-18-29.33-34.78-14.67-38.82-14.67-41.38,11.33-41.38,11.33Z"/>
  <path class="st0" d="M258.7,270.55c.88-17.75,6.14-13.27,13.17-25.33,9.59-16.46,4.07-35.85-13.17-43.67v26.5c0,1.53-11.05,7.56-13.5,7.56-2.85,0-13.5-5.79-13.5-8.56v-25.5c-16.19,8.13-23.41,27.8-13.2,43.7,3.06,4.75,13.2,12.04,13.2,17.8v117.5c-10.22,1.13-22.23,1.74-32.55,1.05-3.37-.23-10.4-.6-11.93-4.07-.22-.5-1.53-6.14-1.53-6.47v-89c0-.11,1.39-1.5,1.5-1.5h34c2.18,0,2.18-10,0-10h-34c-1.1,0-1.43-2.44-1.55-3.45-.73-6,1.19-14.58,1.12-21.05-.02-2.39-1.11-4.58-1.12-6.97-.01-5.14-.78-28.68.97-31.11l100.77-61.23,5.3-2.2v126c0,1.2-21.78,0-24,0h-10Z"/>
  <path class="st0" d="M409.7,375.05c-.81,5.41-7.91,6.17-12.46,6.54-23.59,1.91-65.46,1.87-89.08.01-1.93-.15-3.62-.59-5.45-1.05v-98.5c0-.11,1.39-1.5,1.5-1.5h104c.11,0,1.5,1.39,1.5,1.5v93ZM378.7,308.55h-45v45h45v-45Z"/>
  <path class="st2" d="M302.7,144.55l9.2,4.09c6.28,5.31,14.86,8.79,22.13,13.08,25.42,15.01,50.44,30.97,75.67,46.33v62.5h-39c-1.19-16.81-14.1-59.19,18.33-44.83l12.67,10.82c-2.09-16.4-16.35-30.51-32.75-32.74-4.25-.58-16.84-.98-20.72-.24-3.31.63-5.04,4.96-11.01,5.07-6.69.12-5.41-4.05-8.19-4.91-3.47-1.07-9.47.39-13.32-.18v26c4.19-.71,8.13,1.51,12.29.79,3.75-.65,3.05-5.27,9.21-5.83,7.68-.7,11.86,4.28,12.55,11.49.95,10-2.61,24.2-3.05,34.55h-44v-126Z"/>
  <path class="st2" d="M158,194.84c1.26-1.58,17.15-11.1,20.39-13.09,25.25-15.53,51.12-30.08,76.63-45.37,11.24-6.74,22.99-15.7,34.37-21.63,4.9-2.55,8.58-5.14,13.98-1.37l129.64,78.36c10.2,5.51,4.78,18.5-6.07,14.06-42.28-26.82-85.55-52.06-128.83-77.23l-5.1,1.81-125.37,75.61c-7.68,4-14.52-5.01-9.64-11.15Z"/>
  <path class="st2" d="M437.7,514.05c1.83-11.08,15.87-11.64,18.95-.95-2.03,30.54,2.87,64.91.1,95-1.13,12.26-15.95,11.89-19.54,1.46-18.01,17.2-48.12,8.41-57.26-13.74-16.06-38.89,22.33-78.02,57.76-51.26,1.08-9.24-1.46-21.68,0-30.5ZM411.44,553.79c-21.4,3.69-23.13,44.03,2.02,47.5,33.55,4.62,33.55-53.62-2.02-47.5Z"/>
  <path class="st2" d="M531.69,545.55c-2.22-11.28,15.31-12.53,17.58-3.07-.67,20.96,2.37,44.98.48,65.61-1.1,11.99-16.35,11.72-19.54,1.46-22.32,19.09-54.71,5.56-60.39-22.63-7.64-37.93,30.39-67.25,61.87-41.38ZM503.43,553.78c-22.92,4.2-20.55,49.98,7.63,47.68,29.61-2.41,26.72-53.98-7.63-47.68Z"/>
  <path class="st2" d="M345.69,545.55c-.46-10.66,12.82-13,17.8-4.29l.25,67.84c-.07,11.64-17.99,10.18-18.54-.54-16.26,16.92-44.3,11.26-55.67-8.34-22.02-37.94,19.4-85.61,56.16-54.67ZM318.44,553.79c-20.8,3.54-22.09,43.81,2,47.51,32.91,5.06,34.92-53.8-2-47.51Z"/>
  <path class="st2" d="M154.45,536.8c31.18-3.96,52.99,16.62,49.13,48.13-4.33,35.32-55.27,45.54-75.3,16.52-16.46-23.84-3.8-60.85,26.17-64.65ZM156.42,553.77c-24.21,4.92-21.35,51.46,9.51,47.51,27.97-3.58,24.69-54.47-9.51-47.51Z"/>
  <path class="st2" d="M268.7,270.55c.36,1.27-.5,10,0,10h24v101h-34c1.35-36.62-1.8-74.53,0-111h10Z"/>
  <path class="st2" d="M221.2,555.55c-10.1-1.27-14.03-12.02-4.97-16.97,17.51,1.34,37.83-1.89,54.99-.03,7.97.86,7.63,9.29,3.92,14.93-8.1,12.31-22.74,26.55-32.41,38.59-2.14,2.67-4.47,5.4-6.02,8.48h36.5c5.4,0,8.94,13.74-.21,15.79l-55.83.26c-7.78-1.21-8.98-9.17-5.12-15.2l37.66-45.84c-8.98-.81-19.75,1.1-28.5,0Z"/>
  <path class="st0" d="M46.2,639.55h503c1.98,0,1.99,6,0,6H46.2c-1.64,0-2.41-5.03,0-6Z"/>
  <path class="st2" d="M64.7,597.55h43.5c5.78,0,9.5,9.15,6.37,14.41-.53.89-4.28,4.13-5.55,4.36-8.57,1.57-24.42.23-33.86.19-4.24-.02-7.38.21-11.97.05-6.1-.21-12.95,1.71-16.97-4.02l-.3-95.27c2.23-9.97,18.79-5.26,18.79.79v79.5Z"/>
  <path class="st2" d="M535.69,441.54c1.01-8.76,9.44-9.25,13.81-2.29l.26,50.84c-.34,4.99-5.24,6.3-9.53,5.43-3.5-.71-3.76-5.45-5.95-4.94-.69.16-2.32,2.46-3.86,3.17-13.33,6.11-30.1,1.76-36.59-11.83-13.78-28.9,13.64-61.6,41.86-40.38ZM516.42,447.78c-15.86,3.3-16.22,33.23.86,35.67,26.65,3.81,24.16-40.88-.86-35.67Z"/>
  <path class="st2" d="M267.71,470.55c.63,10.7,13.55,14.32,22.54,13.04,4.75-.67,13.89-10.38,17.05-.06s-20.17,13.68-27.09,13.01c-47.32-4.56-27.19-80.22,15.53-58.53,10.15,5.15,20.56,21.83,12.98,32.05-13.58.48-27.65,3.14-41,.49ZM296.7,459.55c-1.53-16.79-27.66-16.64-29,0h29Z"/>
  <path class="st2" d="M371.7,471.56c1.04,10.21,13.43,13.6,22.28,11.76,5.27-1.09,9.16-7.63,15.01-2.82,6.41,5.27-.93,10.61-5.91,12.92-15.8,7.34-37.37,2.63-44.15-14.6-12.77-32.47,25.58-60.42,48.79-33.79,5.56,6.37,10.66,18.31,4.31,25.36l-40.34,1.17ZM400.7,459.55c-2.09-16.42-27.84-16.34-29,0h29Z"/>
  <path class="st2" d="M117.7,470.55c.9,10.42,12.18,14.17,21.42,12.91,5.74-.78,13-8.57,17.65-1.48,3.78,5.76-4.94,10.92-9.52,12.62-31.24,11.63-57.1-21.03-37.98-47.98,15.51-21.86,50.5-11.2,52.46,14.45.17,2.27-.92,9.49-3.53,9.49h-40.5ZM146.7,459.55c-.97-16.53-27.35-16.38-29,0h29Z"/>
  <path class="st2" d="M60.7,430.55v19c6.88.92,28.63-3.62,32.89,1.6,2.69,3.3,1.63,11.4-1.39,11.4h-31.5v27.5c0,.26-2.29,4.34-2.49,4.51-2.33,2.08-9.76,1.59-11.57-1.45s-.95-20.88-.98-26.1c-.08-12.64-1.04-27.29,0-40,.52-6.3,1-8.95,7.5-9.5,13.63-1.15,29.03.77,42.85.23,6.34,2.19,2.83,12.81-1.81,12.81h-33.5Z"/>
  <path class="st2" d="M337.7,480.05c1.63,5.78,14.5-2.99,14.08,7.97-.39,10.21-18.97,9.38-24.09,3.77-7.81-8.55-2.09-40.45-3.98-42.24-1.07-1.02-11.73,2.21-11.1-7.5.52-7.93,10.36-4.75,11.1-5.49,1.01-1.01-2.88-14.2,5.58-14.96,10.09-.9,8.51,7.55,8.41,14.96,5.14.53,13.16-2.29,13.92,4.56,1.4,12.5-13.92,7.44-13.92,8.43,0,6.36-1.26,26.01,0,30.5Z"/>
  <path class="st2" d="M226.46,494.31c-2.63,2.63-12.33,1.88-12.74-3.29l.42-51.53c4-6.86,13.11-5.12,14.05,3.05,4.83-8.13,24.79-12.56,23.59.52-.85,9.23-10.52,3.06-15.83,5.24-14.11,5.79-4.77,41.28-9.49,46Z"/>
  <path class="st2" d="M436.7,442.54l9.3-6.19c6.55-3.42,16.39-1.42,14.68,7.66-1.45,7.67-9.71,2.74-14.25,3.72-13.68,2.95-6.83,33.47-8.94,43.1-1.57,7.14-12.59,6.39-13.72-.85-1.25-7.96-1.13-39.71.03-47.84,1.38-9.64,12.96-8.23,12.91.4Z"/>
  <path class="st2" d="M183.71,443.55c5.95-5.55,9.6-9.26,18.55-8.05,7.44,1.01,7.07,11.29,1.72,12.86-4.88,1.42-7.61-3.18-13.78,1.19-11.78,8.35-3.55,31.28-6.71,42.29-1.66,5.77-12.76,5.04-12.84-1.74,1.14-7.45-1.84-49.23,1.29-52.32,4.47-4.42,12.32-.68,11.78,5.77Z"/>
  <path class="st2" d="M473.47,435.74c4.9-.58,7.69,1.46,8.25,6.29,1.01,8.77,1.28,39.7-.07,47.96-1.33,8.15-13,7.65-13.99.11,1.71-15.01-2.15-34.56.12-48.98.52-3.33,2.33-4.98,5.7-5.38Z"/>
  <path class="st2" d="M159.7,664.55c.16-.15,3.08-.17,3.79.22,2.19,1.21,5.34,13.8,8.7,13.79,1.49,0,6.04-16.88,11.51-14.01v23c0,.2-4,.2-4,0v-15l-8.5,12.98c-1.44-.05-6.45-13.51-7.54-4.52-.4,3.31,1.38,7.14-3.96,6.54.63-3.04-.84-22.21,0-23Z"/>
  <path class="st2" d="M481.39,408.74c5.05-1.56,10.51,1.4,9.1,7.05-.76,3.06-10.84,14.51-14.27,14.84-15.46,1.48,3.73-21.44,5.17-21.89Z"/>
  <path class="st2" d="M113.7,664.55c5.28.47,14.52-2.09,17.24,4.25,3.37,7.84-2.82,9.49-2.97,11.23s4.73,6.64,3.72,7.51c-4.06,2.48-7.51-6.94-8.58-7.02-.27-.02-5.17.88-5.36,1.08-1.34,1.37,2.84,7.73-4.06,5.95v-23ZM117.69,677.55c9.41,3.21,14.85-8.71,5.42-9.96-7.65-1.01-5.09,4.4-5.42,9.96Z"/>
  <path class="st2" d="M64.7,687.55c-7.36,2.6-2.48-8.49-3.99-10.01-.4-.4-8.69.31-10.43-.01-2.18,4.63,2.63,11.64-4.57,10.02,1.16-5.99-1.42-13-1.08-18.52.13-2.16.27-5.51,3.57-4.47,2.74.86.95,8.44,1.5,9,.39.39,10.62.39,11.01,0,1.45-1.44-3.27-11.45,3.99-9.01v23Z"/>
  <path class="st2" d="M219.7,664.55c2.59-2.67,11.97,11.76,13.71,13.72.59.67-.08,1.91,2.29,1.28v-15h3v23c-6.96-.91-9.47-11.12-15-15v15c0,.2-4,.2-4,0v-23Z"/>
  <path class="st2" d="M488.7,666.05c.13-.43,1.13-1,1.51-1.49.78.06,1.64-.27,2.37.13,1.5.83,8.25,13.92,12.12,14.86v-15h3v22.5c0,.12-1.45,2-2,1.01-2.67-2.37-4.72-4.6-6.01-8l-6.99-8.51v16c0,.2-4,.2-4,0,0-4.55-.92-18.37,0-21.5Z"/>
  <path class="st2" d="M469.41,664.76c21.3-4.9,19.66,28.67-.76,22.34-9.75-3.02-9.25-20.03.76-22.34ZM471.42,667.75c-9.27,2.1-7.41,17.85,2.69,16.8,10.27-1.07,8.7-19.38-2.69-16.8Z"/>
  <path class="st2" d="M380.39,666.86c12.65,11.19-8.11,30.74-17.52,16.02-8.31-13,8.54-23.96,17.52-16.02ZM378.42,669.83c-8.17-8.17-19.47,5.43-11.24,12.74s18.19-5.8,11.24-12.74Z"/>
  <path class="st2" d="M91.7,664.55c7.27-.16,17.53-1.54,17.1,8.52-.21,4.89-3.78,5.77-3.87,6.97-.1,1.32,5.01,6.43,3.77,7.51-.49.43-3.15.15-4.08-.65-3.42-2.92-.64-8.54-9.92-6.35v7.01s-2.99,0-2.99,0v-23ZM94.69,677.55c14.67,1.58,14.7-11.58,0-10.01v10.01Z"/>
  <path class="st2" d="M282.69,687.54c-3.33,2.93-6.18-4.92-6.66-5.04-1.08-.26-10.71-.1-11.18.2-.32.21-2.41,7.51-5.15,4.84-.87-.85,7.94-21.86,8.94-22.55,1.37-.95,3.53-.69,4.58.53.22,2.93,10.37,21.22,9.47,22.02ZM271.69,669.55c-1.43-1.49-1.74.41-2.22,1.28-.61,1.1-3.31,8.2-2.77,8.72h7.99c-.31-1.46-2.64-9.62-3.01-10Z"/>
  <path class="st2" d="M147.58,664.68c-.24,3.9,10.25,20.77,8.11,22.87-2.53,2.48-3.77-3.31-4.46-4.02-1.37-1.4-9-1.43-10.87-.81-2.9.95-1.23,6.67-6.66,4.84l8.89-22.38,4.99-.49ZM148.7,679.54c.78-1.85-2.93-11.95-5-9.99l-2.01,9.99h7Z"/>
  <path class="st2" d="M86.7,664.55v3s-12.01,0-12.01,0v7.01s10.01,0,10.01,0v2.99s-11.01,0-11.01,0c-2.4,14.37,12.87.37,13,10h-16v-23h16Z"/>
  <path class="st2" d="M299.62,665.64c3.01,4.94-5.57,1.57-8.17,2.08-4.27.83-4.98,3.42-1.02,5.6,4.26,2.34,10.2,1.07,10.33,7.77s-7.08,7.18-12.5,6.4c-3.49-.5-6.61-4.27-3.03-4.93.75-.14,10.67,4.29,11.54.4,1.59-7.17-13-3.42-12.99-11.9s14.54-7.56,15.85-5.41Z"/>
  <path class="st2" d="M356.69,669.54c-2.05-1.07-10.39-3.41-11.06-.4-1.59,7.17,14.33,3.66,12.9,12.68-1.61,10.19-21.01,5.07-16.84.73.53-.55,13.07,5.52,13.05-1.52-.01-4.82-15.3-1.5-13.03-11.96,1.28-5.92,16.98-7.43,14.97.47Z"/>
  <path class="st2" d="M548.62,665.64c3.69,6.06-11.13-1.06-11,4.4.16,6.57,11.4,2.03,12.16,10,.68,7.17-5.58,8.37-11.52,7.45-2.05-.32-6.52-2.85-4.56-4.93.51-.54,14.13,5.4,12.93-1.39-.86-4.86-17.61-2.77-12.44-13.62,1.83-3.84,13.32-3.7,14.42-1.9Z"/>
  <path class="st2" d="M529.7,664.55v3s-12,0-12,0c-1.46,9.33,4.09,6.82,11.01,7.01v2.99s-11.01,0-11.01,0v7.01s12.01,0,12.01,0v3h-15.01v-23h15Z"/>
  <polygon class="st2" points="214.7 664.55 214.7 667.54 202.69 667.54 202.68 673.97 213.7 674.55 213.7 677.54 202.69 677.54 202.69 684.55 214.7 684.55 214.7 687.55 199.7 687.55 199.7 664.55 214.7 664.55"/>
  <path class="st2" d="M448.69,669.54c-.94.97-5.05-1.85-6.58-2-7.25-.73-11.47,6.91-7.83,12.93,4.92,8.11,13.37.96,14.41,2.08,2.44,2.61-5.78,6.05-8.41,5.93-14.98-.66-15.58-26.89,3.85-23.87,2.13.33,6.51,2.9,4.56,4.93Z"/>
  <path class="st2" d="M406.7,664.55h3c-.25,5.76-1.42,24.34,8.77,19.29,1.32-.66,3.23-3.66,3.23-4.79v-14.5h3v17.5c0,7.21-18,7.21-18,0v-17.5Z"/>
  <path class="st2" d="M320.71,675.54c2.52-1.9,3.85-7.5,5.95-9.53,1.33-1.29,2.09-1.76,4.04-1.45-2.65,8.01-10.1,13.74-8,23-7.22,1.47-2.71-4.51-3.6-8.04-.55-2.18-8.64-13.76-7.39-14.96,2.94-2.82,8.4,9.09,9.01,10.99Z"/>
  <path class="st2" d="M259.2,664.55c.88.26,1.82,1.98,1.49,2.99-1.11.3-7.99-.39-7.99,0v20c0,.16-2.27.23-3,1v-21c0-.4-7.62.4-8.01,0v-3c4.6.85,13.59-1.16,17.51,0Z"/>
  <path class="st2" d="M391.7,664.55v18.5c0,2.39,9.87,1.29,12.01,1.5v3h-15.01v-23h3Z"/>
  <rect class="st2" x="189.7" y="664.55" width="3" height="23"/>
  <rect class="st2" x="453.7" y="664.55" width="3" height="23"/>
  <rect class="st1" x="333.7" y="308.55" width="45" height="45"/>
</svg>